/* XPM */
static char *icwinexit[] = {
/* width height num_colors chars_per_pixel */
"     8    5        2            1",
/* colors */
". c #000000",
"# c none",
/* pixels */
"#..##..#",
"##....##",
"###..###",
"##....##",
"#..##..#",
};
